<svg xmlns="http://www.w3.org/2000/svg" xmlns:xlink="http://www.w3.org/1999/xlink" width="384" zoomAndPan="magnify" viewBox="0 0 288 143.999998" height="192" preserveAspectRatio="xMidYMid meet" version="1.0"><defs><g/></defs><rect x="-28.8" width="345.6" fill="#ffffff" y="-14.4" height="172.799997" fill-opacity="1"/><rect x="-28.8" width="345.6" fill="#ffffff" y="-14.4" height="172.799997" fill-opacity="1"/><g fill="#8b0e64" fill-opacity="1"><g transform="translate(9.478687, 63.051965)"><g><path d="M 40.015625 -33.265625 C 41.847656 -33.265625 42.765625 -32.515625 42.765625 -31.015625 C 42.765625 -30.554688 42.660156 -29.972656 42.453125 -29.265625 L 41.265625 -25.21875 C 40.898438 -23.988281 40.445312 -23.125 39.90625 -22.625 C 39.375 -22.125 38.609375 -21.875 37.609375 -21.875 C 36.773438 -21.875 36.132812 -22.085938 35.6875 -22.515625 C 35.238281 -22.953125 34.816406 -23.640625 34.421875 -24.578125 L 33.5625 -26.625 C 33.300781 -27.257812 33.019531 -27.691406 32.71875 -27.921875 C 32.414062 -28.160156 31.953125 -28.28125 31.328125 -28.28125 L 30.171875 -28.28125 L 23.828125 -5.9375 C 23.722656 -5.507812 23.671875 -5.128906 23.671875 -4.796875 C 23.671875 -4.398438 23.726562 -4.066406 23.84375 -3.796875 C 23.96875 -3.523438 24.144531 -3.242188 24.375 -2.953125 C 24.675781 -2.484375 24.828125 -2.097656 24.828125 -1.796875 C 24.828125 -1.734375 24.796875 -1.566406 24.734375 -1.296875 C 24.566406 -0.867188 24.238281 -0.550781 23.75 -0.34375 C 23.269531 -0.144531 22.582031 -0.046875 21.6875 -0.046875 L 9.9375 -0.046875 C 9.238281 -0.046875 8.695312 -0.160156 8.3125 -0.390625 C 7.9375 -0.628906 7.75 -0.96875 7.75 -1.40625 C 7.75 -1.601562 7.796875 -1.800781 7.890625 -2 C 8.023438 -2.300781 8.179688 -2.523438 8.359375 -2.671875 C 8.546875 -2.816406 8.820312 -3.007812 9.1875 -3.25 C 9.6875 -3.550781 10.101562 -3.882812 10.4375 -4.25 C 10.769531 -4.613281 11.054688 -5.175781 11.296875 -5.9375 L 17.578125 -28.28125 L 16.4375 -28.28125 C 15.695312 -28.28125 15.09375 -28.160156 14.625 -27.921875 C 14.164062 -27.691406 13.671875 -27.257812 13.140625 -26.625 L 11.484375 -24.578125 C 10.722656 -23.679688 9.984375 -23.003906 9.265625 -22.546875 C 8.546875 -22.097656 7.769531 -21.875 6.9375 -21.875 C 6.175781 -21.875 5.578125 -22.070312 5.140625 -22.46875 C 4.710938 -22.875 4.5 -23.425781 4.5 -24.125 C 4.5 -24.457031 4.546875 -24.820312 4.640625 -25.21875 L 5.9375 -29.765625 C 6.207031 -30.703125 6.507812 -31.410156 6.84375 -31.890625 C 7.175781 -32.378906 7.648438 -32.726562 8.265625 -32.9375 C 8.878906 -33.15625 9.753906 -33.265625 10.890625 -33.265625 Z M 40.015625 -33.265625 "/></g></g></g><g fill="#8b0e64" fill-opacity="1"><g transform="translate(47.388084, 63.051965)"><g><path d="M 30.625 -6.890625 C 30.550781 -6.753906 30.515625 -6.554688 30.515625 -6.296875 C 30.515625 -6.054688 30.570312 -5.867188 30.6875 -5.734375 C 30.8125 -5.609375 30.972656 -5.546875 31.171875 -5.546875 C 31.566406 -5.546875 31.90625 -5.71875 32.1875 -6.0625 C 32.476562 -6.414062 32.671875 -6.59375 32.765625 -6.59375 C 32.929688 -6.59375 33.0625 -6.484375 33.15625 -6.265625 C 33.257812 -6.046875 33.3125 -5.789062 33.3125 -5.5 C 33.351562 -4.53125 33.039062 -3.585938 32.375 -2.671875 C 31.707031 -1.753906 30.734375 -1.003906 29.453125 -0.421875 C 28.171875 0.160156 26.628906 0.453125 24.828125 0.453125 C 22.628906 0.453125 20.878906 -0.0507812 19.578125 -1.0625 C 18.285156 -2.082031 17.617188 -3.441406 17.578125 -5.140625 C 17.578125 -6.378906 17.878906 -7.765625 18.484375 -9.296875 L 21.234375 -16.484375 C 21.398438 -16.921875 21.484375 -17.269531 21.484375 -17.53125 C 21.484375 -17.96875 21.335938 -18.3125 21.046875 -18.5625 C 20.765625 -18.8125 20.425781 -18.9375 20.03125 -18.9375 C 19.394531 -18.9375 18.753906 -18.644531 18.109375 -18.0625 C 17.460938 -17.476562 16.9375 -16.535156 16.53125 -15.234375 L 16.53125 -15.328125 L 13.390625 -5.1875 C 13.285156 -4.789062 13.234375 -4.441406 13.234375 -4.140625 C 13.234375 -3.710938 13.316406 -3.375 13.484375 -3.125 C 13.648438 -2.875 13.882812 -2.628906 14.1875 -2.390625 C 14.414062 -2.160156 14.582031 -1.96875 14.6875 -1.8125 C 14.789062 -1.664062 14.804688 -1.476562 14.734375 -1.25 C 14.566406 -0.8125 14.234375 -0.492188 13.734375 -0.296875 C 13.234375 -0.0976562 12.46875 0 11.4375 0 L 0.046875 0 C -0.816406 0 -1.445312 -0.140625 -1.84375 -0.421875 C -2.25 -0.703125 -2.382812 -1.078125 -2.25 -1.546875 C -2.113281 -1.941406 -1.765625 -2.289062 -1.203125 -2.59375 C -0.703125 -2.863281 -0.285156 -3.179688 0.046875 -3.546875 C 0.378906 -3.910156 0.664062 -4.492188 0.90625 -5.296875 L 8.484375 -30.21875 C 8.585938 -30.519531 8.640625 -30.769531 8.640625 -30.96875 C 8.640625 -31.332031 8.546875 -31.628906 8.359375 -31.859375 C 8.179688 -32.097656 7.941406 -32.332031 7.640625 -32.5625 C 7.304688 -32.832031 7.0625 -33.066406 6.90625 -33.265625 C 6.757812 -33.460938 6.738281 -33.726562 6.84375 -34.0625 C 7.039062 -34.832031 8.085938 -35.5 9.984375 -36.0625 C 11.890625 -36.632812 13.875 -36.921875 15.9375 -36.921875 C 17.863281 -36.921875 19.285156 -36.550781 20.203125 -35.8125 C 21.117188 -35.082031 21.578125 -34.082031 21.578125 -32.8125 C 21.578125 -32.082031 21.460938 -31.367188 21.234375 -30.671875 L 18.53125 -21.875 C 19.832031 -23.570312 21.207031 -24.753906 22.65625 -25.421875 C 24.101562 -26.085938 25.675781 -26.421875 27.375 -26.421875 C 29.40625 -26.421875 31.046875 -25.804688 32.296875 -24.578125 C 33.546875 -23.347656 34.171875 -21.75 34.171875 -19.78125 C 34.171875 -18.75 34.003906 -17.734375 33.671875 -16.734375 Z M 30.625 -6.890625 "/></g></g></g><g fill="#8b0e64" fill-opacity="1"><g transform="translate(82.850098, 63.051965)"><g><path d="M 16.9375 -26.671875 C 21.164062 -26.671875 24.226562 -25.992188 26.125 -24.640625 C 28.019531 -23.296875 28.96875 -21.578125 28.96875 -19.484375 C 28.96875 -18.847656 28.898438 -18.265625 28.765625 -17.734375 C 28.273438 -15.535156 26.890625 -13.960938 24.609375 -13.015625 C 22.328125 -12.066406 19.632812 -11.59375 16.53125 -11.59375 C 14.96875 -11.59375 13.503906 -11.691406 12.140625 -11.890625 C 12.109375 -10.160156 12.570312 -8.941406 13.53125 -8.234375 C 14.5 -7.535156 15.847656 -7.1875 17.578125 -7.1875 C 18.378906 -7.1875 19.144531 -7.28125 19.875 -7.46875 C 20.613281 -7.65625 21.546875 -7.929688 22.671875 -8.296875 C 23.609375 -8.628906 24.242188 -8.796875 24.578125 -8.796875 C 24.941406 -8.796875 25.125 -8.578125 25.125 -8.140625 C 25.15625 -6.972656 24.722656 -5.75 23.828125 -4.46875 C 22.929688 -3.1875 21.597656 -2.09375 19.828125 -1.1875 C 18.066406 -0.289062 15.9375 0.15625 13.4375 0.15625 C 9.738281 0.15625 6.707031 -0.773438 4.34375 -2.640625 C 1.976562 -4.503906 0.796875 -7.222656 0.796875 -10.796875 C 0.796875 -11.785156 0.929688 -12.945312 1.203125 -14.28125 C 2.035156 -18.382812 3.859375 -21.472656 6.671875 -23.546875 C 9.484375 -25.628906 12.90625 -26.671875 16.9375 -26.671875 Z M 12.484375 -14.890625 C 12.617188 -14.859375 12.800781 -14.84375 13.03125 -14.84375 C 14.4375 -14.84375 15.503906 -15.488281 16.234375 -16.78125 C 16.960938 -18.082031 17.3125 -19.53125 17.28125 -21.125 C 17.25 -22.0625 16.984375 -22.53125 16.484375 -22.53125 C 16.117188 -22.53125 15.6875 -22.238281 15.1875 -21.65625 C 14.6875 -21.070312 14.191406 -20.195312 13.703125 -19.03125 C 13.222656 -17.863281 12.816406 -16.484375 12.484375 -14.890625 Z M 12.484375 -14.890625 "/></g></g></g><g fill="#4b824e" fill-opacity="1"><g transform="translate(110.823096, 63.051965)"><g/></g></g><g fill="#8b0e64" fill-opacity="1"><g transform="translate(120.816391, 63.051965)"><g><path d="M 53.65625 -33.265625 C 54.351562 -33.265625 54.890625 -33.15625 55.265625 -32.9375 C 55.648438 -32.726562 55.84375 -32.421875 55.84375 -32.015625 C 55.84375 -31.847656 55.796875 -31.632812 55.703125 -31.375 C 55.597656 -31.070312 55.453125 -30.84375 55.265625 -30.6875 C 55.085938 -30.539062 54.816406 -30.351562 54.453125 -30.125 C 53.921875 -29.820312 53.492188 -29.488281 53.171875 -29.125 C 52.859375 -28.757812 52.582031 -28.191406 52.34375 -27.421875 L 46.25 -5.9375 C 46.125 -5.507812 46.0625 -5.097656 46.0625 -4.703125 C 46.0625 -4.328125 46.117188 -4.015625 46.234375 -3.765625 C 46.347656 -3.515625 46.503906 -3.222656 46.703125 -2.890625 C 46.835938 -2.722656 46.953125 -2.546875 47.046875 -2.359375 C 47.148438 -2.179688 47.203125 -1.992188 47.203125 -1.796875 C 47.203125 -1.734375 47.171875 -1.566406 47.109375 -1.296875 C 46.972656 -0.867188 46.660156 -0.550781 46.171875 -0.34375 C 45.691406 -0.144531 45.003906 -0.046875 44.109375 -0.046875 L 32.375 -0.046875 C 31.675781 -0.046875 31.132812 -0.160156 30.75 -0.390625 C 30.363281 -0.628906 30.171875 -0.945312 30.171875 -1.34375 C 30.171875 -1.550781 30.222656 -1.769531 30.328125 -2 C 30.421875 -2.226562 30.554688 -2.429688 30.734375 -2.609375 C 30.921875 -2.796875 31.085938 -2.929688 31.234375 -3.015625 C 31.390625 -3.097656 31.503906 -3.175781 31.578125 -3.25 C 32.109375 -3.550781 32.539062 -3.882812 32.875 -4.25 C 33.207031 -4.613281 33.488281 -5.175781 33.71875 -5.9375 L 37.515625 -19.4375 L 24.578125 -3.390625 C 23.515625 -2.097656 22.65625 -1.207031 22 -0.71875 C 21.351562 -0.238281 20.613281 0 19.78125 0 C 18.976562 0 18.351562 -0.253906 17.90625 -0.765625 C 17.457031 -1.285156 17.050781 -2.160156 16.6875 -3.390625 L 11.984375 -18.828125 L 8.296875 -5.890625 C 8.160156 -5.460938 8.09375 -5.046875 8.09375 -4.640625 C 8.09375 -4.242188 8.148438 -3.910156 8.265625 -3.640625 C 8.378906 -3.378906 8.554688 -3.097656 8.796875 -2.796875 C 9.085938 -2.359375 9.234375 -2.007812 9.234375 -1.75 C 9.234375 -1.6875 9.203125 -1.519531 9.140625 -1.25 C 9.003906 -0.78125 8.703125 -0.453125 8.234375 -0.265625 C 7.773438 -0.0859375 7.078125 0 6.140625 0 L 2 0 C 1.300781 0 0.757812 -0.113281 0.375 -0.34375 C -0.0078125 -0.582031 -0.203125 -0.898438 -0.203125 -1.296875 C -0.203125 -1.492188 -0.148438 -1.710938 -0.046875 -1.953125 C 0.0859375 -2.316406 0.300781 -2.597656 0.59375 -2.796875 C 0.894531 -2.992188 1.082031 -3.109375 1.15625 -3.140625 C 1.6875 -3.472656 2.117188 -3.816406 2.453125 -4.171875 C 2.785156 -4.523438 3.066406 -5.097656 3.296875 -5.890625 L 9.390625 -27.46875 L 8.59375 -30.125 C 8.425781 -30.625 8.34375 -31.109375 8.34375 -31.578125 C 8.34375 -32.171875 8.53125 -32.597656 8.90625 -32.859375 C 9.289062 -33.128906 9.882812 -33.265625 10.6875 -33.265625 L 18.4375 -33.265625 C 19.4375 -33.265625 20.175781 -33.046875 20.65625 -32.609375 C 21.132812 -32.179688 21.523438 -31.4375 21.828125 -30.375 L 26.828125 -13.78125 L 40.359375 -30.625 C 41.222656 -31.6875 42.070312 -32.390625 42.90625 -32.734375 C 43.738281 -33.085938 44.835938 -33.265625 46.203125 -33.265625 Z M 53.65625 -33.265625 "/></g></g></g><g fill="#8b0e64" fill-opacity="1"><g transform="translate(172.511022, 63.051965)"><g><path d="M 19.328125 -26.421875 C 23.859375 -26.421875 27.195312 -25.503906 29.34375 -23.671875 C 31.488281 -21.847656 32.5625 -19.453125 32.5625 -16.484375 C 32.5625 -15.484375 32.429688 -14.367188 32.171875 -13.140625 C 31.535156 -10.410156 30.351562 -8.019531 28.625 -5.96875 C 26.894531 -3.914062 24.769531 -2.332031 22.25 -1.21875 C 19.738281 -0.101562 17.019531 0.453125 14.09375 0.453125 C 9.457031 0.453125 6.03125 -0.46875 3.8125 -2.3125 C 1.601562 -4.164062 0.5 -6.625 0.5 -9.6875 C 0.5 -10.71875 0.632812 -11.867188 0.90625 -13.140625 C 1.53125 -15.734375 2.734375 -18.035156 4.515625 -20.046875 C 6.296875 -22.066406 8.476562 -23.632812 11.0625 -24.75 C 13.644531 -25.863281 16.398438 -26.421875 19.328125 -26.421875 Z M 19.1875 -21.984375 C 18.488281 -21.984375 17.742188 -21.359375 16.953125 -20.109375 C 16.171875 -18.859375 15.25 -16.5 14.1875 -13.03125 C 13.125 -9.570312 12.59375 -7.144531 12.59375 -5.75 C 12.59375 -5.007812 12.707031 -4.515625 12.9375 -4.265625 C 13.164062 -4.015625 13.484375 -3.890625 13.890625 -3.890625 C 14.585938 -3.828125 15.3125 -4.425781 16.0625 -5.6875 C 16.8125 -6.957031 17.75 -9.425781 18.875 -13.09375 C 19.914062 -16.320312 20.4375 -18.664062 20.4375 -20.125 C 20.4375 -20.832031 20.328125 -21.316406 20.109375 -21.578125 C 19.890625 -21.847656 19.582031 -21.984375 19.1875 -21.984375 Z M 19.1875 -21.984375 "/></g></g></g><g fill="#8b0e64" fill-opacity="1"><g transform="translate(205.275928, 63.051965)"><g><path d="M 19.328125 -26.421875 C 23.859375 -26.421875 27.195312 -25.503906 29.34375 -23.671875 C 31.488281 -21.847656 32.5625 -19.453125 32.5625 -16.484375 C 32.5625 -15.484375 32.429688 -14.367188 32.171875 -13.140625 C 31.535156 -10.410156 30.351562 -8.019531 28.625 -5.96875 C 26.894531 -3.914062 24.769531 -2.332031 22.25 -1.21875 C 19.738281 -0.101562 17.019531 0.453125 14.09375 0.453125 C 9.457031 0.453125 6.03125 -0.46875 3.8125 -2.3125 C 1.601562 -4.164062 0.5 -6.625 0.5 -9.6875 C 0.5 -10.71875 0.632812 -11.867188 0.90625 -13.140625 C 1.53125 -15.734375 2.734375 -18.035156 4.515625 -20.046875 C 6.296875 -22.066406 8.476562 -23.632812 11.0625 -24.75 C 13.644531 -25.863281 16.398438 -26.421875 19.328125 -26.421875 Z M 19.1875 -21.984375 C 18.488281 -21.984375 17.742188 -21.359375 16.953125 -20.109375 C 16.171875 -18.859375 15.25 -16.5 14.1875 -13.03125 C 13.125 -9.570312 12.59375 -7.144531 12.59375 -5.75 C 12.59375 -5.007812 12.707031 -4.515625 12.9375 -4.265625 C 13.164062 -4.015625 13.484375 -3.890625 13.890625 -3.890625 C 14.585938 -3.828125 15.3125 -4.425781 16.0625 -5.6875 C 16.8125 -6.957031 17.75 -9.425781 18.875 -13.09375 C 19.914062 -16.320312 20.4375 -18.664062 20.4375 -20.125 C 20.4375 -20.832031 20.328125 -21.316406 20.109375 -21.578125 C 19.890625 -21.847656 19.582031 -21.984375 19.1875 -21.984375 Z M 19.1875 -21.984375 "/></g></g></g><g fill="#8b0e64" fill-opacity="1"><g transform="translate(238.040827, 63.051965)"><g><path d="M 30.921875 -6.890625 C 30.859375 -6.753906 30.828125 -6.554688 30.828125 -6.296875 C 30.828125 -6.054688 30.882812 -5.867188 31 -5.734375 C 31.113281 -5.609375 31.269531 -5.546875 31.46875 -5.546875 C 31.863281 -5.546875 32.203125 -5.71875 32.484375 -6.0625 C 32.773438 -6.414062 32.96875 -6.59375 33.0625 -6.59375 C 33.226562 -6.59375 33.363281 -6.484375 33.46875 -6.265625 C 33.570312 -6.046875 33.625 -5.789062 33.625 -5.5 C 33.65625 -4.53125 33.335938 -3.585938 32.671875 -2.671875 C 32.003906 -1.753906 31.03125 -1.003906 29.75 -0.421875 C 28.46875 0.160156 26.925781 0.453125 25.125 0.453125 C 22.925781 0.453125 21.175781 -0.0507812 19.875 -1.0625 C 18.582031 -2.082031 17.921875 -3.441406 17.890625 -5.140625 C 17.890625 -6.378906 18.1875 -7.765625 18.78125 -9.296875 L 21.53125 -16.484375 C 21.695312 -16.921875 21.78125 -17.269531 21.78125 -17.53125 C 21.78125 -17.96875 21.640625 -18.3125 21.359375 -18.5625 C 21.078125 -18.8125 20.734375 -18.9375 20.328125 -18.9375 C 19.597656 -18.9375 18.898438 -18.59375 18.234375 -17.90625 C 17.566406 -17.226562 17.082031 -16.390625 16.78125 -15.390625 L 13.6875 -5.1875 C 13.550781 -4.820312 13.484375 -4.472656 13.484375 -4.140625 C 13.484375 -3.742188 13.566406 -3.421875 13.734375 -3.171875 C 13.898438 -2.921875 14.132812 -2.660156 14.4375 -2.390625 C 14.664062 -2.191406 14.828125 -2.007812 14.921875 -1.84375 C 15.023438 -1.675781 15.046875 -1.476562 14.984375 -1.25 C 14.847656 -0.8125 14.53125 -0.492188 14.03125 -0.296875 C 13.53125 -0.0976562 12.75 0 11.6875 0 L 0.296875 0 C -0.566406 0 -1.1875 -0.140625 -1.5625 -0.421875 C -1.945312 -0.703125 -2.09375 -1.078125 -2 -1.546875 C -1.863281 -1.941406 -1.515625 -2.289062 -0.953125 -2.59375 C -0.453125 -2.863281 -0.0351562 -3.179688 0.296875 -3.546875 C 0.628906 -3.910156 0.914062 -4.492188 1.15625 -5.296875 L 5.59375 -19.734375 C 5.65625 -19.898438 5.6875 -20.132812 5.6875 -20.4375 C 5.6875 -20.800781 5.613281 -21.082031 5.46875 -21.28125 C 5.320312 -21.476562 5.082031 -21.726562 4.75 -22.03125 C 4.414062 -22.289062 4.179688 -22.519531 4.046875 -22.71875 C 3.910156 -22.925781 3.894531 -23.195312 4 -23.53125 C 4.195312 -24.289062 5.242188 -24.960938 7.140625 -25.546875 C 9.035156 -26.128906 11.019531 -26.421875 13.09375 -26.421875 C 14.75 -26.421875 16.0625 -25.960938 17.03125 -25.046875 C 18 -24.128906 18.429688 -22.859375 18.328125 -21.234375 C 19.691406 -23.191406 21.140625 -24.546875 22.671875 -25.296875 C 24.210938 -26.046875 25.878906 -26.421875 27.671875 -26.421875 C 29.703125 -26.421875 31.34375 -25.804688 32.59375 -24.578125 C 33.84375 -23.347656 34.46875 -21.75 34.46875 -19.78125 C 34.46875 -18.75 34.300781 -17.734375 33.96875 -16.734375 Z M 30.921875 -6.890625 "/></g></g></g><g fill="#8b0e64" fill-opacity="1"><g transform="translate(36.502531, 109.922588)"><g><path d="M 40.015625 -33.265625 C 41.847656 -33.265625 42.765625 -32.515625 42.765625 -31.015625 C 42.765625 -30.554688 42.660156 -29.972656 42.453125 -29.265625 L 41.265625 -25.21875 C 40.898438 -23.988281 40.445312 -23.125 39.90625 -22.625 C 39.375 -22.125 38.609375 -21.875 37.609375 -21.875 C 36.773438 -21.875 36.132812 -22.085938 35.6875 -22.515625 C 35.238281 -22.953125 34.816406 -23.640625 34.421875 -24.578125 L 33.5625 -26.625 C 33.300781 -27.257812 33.019531 -27.691406 32.71875 -27.921875 C 32.414062 -28.160156 31.953125 -28.28125 31.328125 -28.28125 L 30.171875 -28.28125 L 23.828125 -5.9375 C 23.722656 -5.507812 23.671875 -5.128906 23.671875 -4.796875 C 23.671875 -4.398438 23.726562 -4.066406 23.84375 -3.796875 C 23.96875 -3.523438 24.144531 -3.242188 24.375 -2.953125 C 24.675781 -2.484375 24.828125 -2.097656 24.828125 -1.796875 C 24.828125 -1.734375 24.796875 -1.566406 24.734375 -1.296875 C 24.566406 -0.867188 24.238281 -0.550781 23.75 -0.34375 C 23.269531 -0.144531 22.582031 -0.046875 21.6875 -0.046875 L 9.9375 -0.046875 C 9.238281 -0.046875 8.695312 -0.160156 8.3125 -0.390625 C 7.9375 -0.628906 7.75 -0.96875 7.75 -1.40625 C 7.75 -1.601562 7.796875 -1.800781 7.890625 -2 C 8.023438 -2.300781 8.179688 -2.523438 8.359375 -2.671875 C 8.546875 -2.816406 8.820312 -3.007812 9.1875 -3.25 C 9.6875 -3.550781 10.101562 -3.882812 10.4375 -4.25 C 10.769531 -4.613281 11.054688 -5.175781 11.296875 -5.9375 L 17.578125 -28.28125 L 16.4375 -28.28125 C 15.695312 -28.28125 15.09375 -28.160156 14.625 -27.921875 C 14.164062 -27.691406 13.671875 -27.257812 13.140625 -26.625 L 11.484375 -24.578125 C 10.722656 -23.679688 9.984375 -23.003906 9.265625 -22.546875 C 8.546875 -22.097656 7.769531 -21.875 6.9375 -21.875 C 6.175781 -21.875 5.578125 -22.070312 5.140625 -22.46875 C 4.710938 -22.875 4.5 -23.425781 4.5 -24.125 C 4.5 -24.457031 4.546875 -24.820312 4.640625 -25.21875 L 5.9375 -29.765625 C 6.207031 -30.703125 6.507812 -31.410156 6.84375 -31.890625 C 7.175781 -32.378906 7.648438 -32.726562 8.265625 -32.9375 C 8.878906 -33.15625 9.753906 -33.265625 10.890625 -33.265625 Z M 40.015625 -33.265625 "/></g></g></g><g fill="#8b0e64" fill-opacity="1"><g transform="translate(74.411928, 109.922588)"><g><path d="M 17.828125 -26.421875 C 21.660156 -26.421875 24.722656 -25.710938 27.015625 -24.296875 C 29.316406 -22.878906 30.46875 -20.722656 30.46875 -17.828125 C 30.46875 -16.734375 30.269531 -15.488281 29.875 -14.09375 L 27.828125 -7.1875 C 27.796875 -7.0625 27.78125 -6.894531 27.78125 -6.6875 C 27.78125 -6.15625 27.992188 -5.890625 28.421875 -5.890625 C 28.816406 -5.890625 29.15625 -6.0625 29.4375 -6.40625 C 29.726562 -6.757812 29.921875 -6.9375 30.015625 -6.9375 C 30.179688 -6.9375 30.320312 -6.820312 30.4375 -6.59375 C 30.5625 -6.363281 30.625 -6.097656 30.625 -5.796875 C 30.65625 -4.898438 30.3125 -3.984375 29.59375 -3.046875 C 28.875 -2.117188 27.914062 -1.351562 26.71875 -0.75 C 25.519531 -0.144531 24.207031 0.15625 22.78125 0.15625 C 21.050781 0.15625 19.566406 -0.160156 18.328125 -0.796875 C 17.097656 -1.429688 16.25 -2.363281 15.78125 -3.59375 C 14.78125 -2.394531 13.597656 -1.46875 12.234375 -0.8125 C 10.867188 -0.164062 9.40625 0.15625 7.84375 0.15625 C 6.070312 0.15625 4.585938 -0.179688 3.390625 -0.859375 C 2.191406 -1.546875 1.300781 -2.429688 0.71875 -3.515625 C 0.132812 -4.597656 -0.15625 -5.738281 -0.15625 -6.9375 C -0.15625 -7.476562 -0.101562 -7.992188 0 -8.484375 C 0.53125 -10.785156 1.6875 -12.519531 3.46875 -13.6875 C 5.25 -14.851562 7.375 -15.4375 9.84375 -15.4375 C 12.601562 -15.4375 15.316406 -15.003906 17.984375 -14.140625 L 19.234375 -17.4375 C 19.660156 -18.832031 19.875 -19.914062 19.875 -20.6875 C 19.84375 -21.476562 19.578125 -22.070312 19.078125 -22.46875 C 18.578125 -22.875 17.8125 -23.078125 16.78125 -23.078125 C 16.976562 -22.546875 17.078125 -22 17.078125 -21.4375 C 17.078125 -20.195312 16.609375 -19.128906 15.671875 -18.234375 C 14.742188 -17.335938 13.414062 -16.890625 11.6875 -16.890625 C 10.050781 -16.890625 8.773438 -17.242188 7.859375 -17.953125 C 6.953125 -18.671875 6.5 -19.5625 6.5 -20.625 C 6.5 -22.289062 7.429688 -23.671875 9.296875 -24.765625 C 11.160156 -25.867188 14.003906 -26.421875 17.828125 -26.421875 Z M 15.03125 -11.296875 C 14.101562 -11.296875 13.347656 -10.9375 12.765625 -10.21875 C 12.179688 -9.5 11.890625 -8.722656 11.890625 -7.890625 C 11.890625 -7.359375 12.015625 -6.925781 12.265625 -6.59375 C 12.515625 -6.257812 12.875 -6.09375 13.34375 -6.09375 C 13.769531 -6.09375 14.238281 -6.265625 14.75 -6.609375 C 15.269531 -6.960938 15.648438 -7.488281 15.890625 -8.1875 L 16.9375 -11.140625 C 16.363281 -11.242188 15.726562 -11.296875 15.03125 -11.296875 Z M 15.03125 -11.296875 "/></g></g></g><g fill="#8b0e64" fill-opacity="1"><g transform="translate(107.076941, 109.922588)"><g><path d="M 15.9375 -36.921875 C 17.863281 -36.921875 19.285156 -36.550781 20.203125 -35.8125 C 21.117188 -35.082031 21.578125 -34.082031 21.578125 -32.8125 C 21.578125 -32.082031 21.460938 -31.367188 21.234375 -30.671875 L 13.390625 -5.1875 C 13.285156 -4.789062 13.234375 -4.441406 13.234375 -4.140625 C 13.234375 -3.710938 13.316406 -3.375 13.484375 -3.125 C 13.648438 -2.875 13.882812 -2.628906 14.1875 -2.390625 C 14.414062 -2.160156 14.582031 -1.96875 14.6875 -1.8125 C 14.789062 -1.664062 14.804688 -1.476562 14.734375 -1.25 C 14.566406 -0.8125 14.234375 -0.492188 13.734375 -0.296875 C 13.234375 -0.0976562 12.46875 0 11.4375 0 L 0.046875 0 C -0.816406 0 -1.445312 -0.140625 -1.84375 -0.421875 C -2.25 -0.703125 -2.382812 -1.078125 -2.25 -1.546875 C -2.113281 -1.941406 -1.765625 -2.289062 -1.203125 -2.59375 C -0.703125 -2.863281 -0.285156 -3.179688 0.046875 -3.546875 C 0.378906 -3.910156 0.664062 -4.492188 0.90625 -5.296875 L 8.484375 -30.21875 C 8.585938 -30.519531 8.640625 -30.769531 8.640625 -30.96875 C 8.640625 -31.332031 8.546875 -31.628906 8.359375 -31.859375 C 8.179688 -32.097656 7.941406 -32.332031 7.640625 -32.5625 C 7.304688 -32.832031 7.0625 -33.066406 6.90625 -33.265625 C 6.757812 -33.460938 6.738281 -33.726562 6.84375 -34.0625 C 7.039062 -34.832031 8.085938 -35.5 9.984375 -36.0625 C 11.890625 -36.632812 13.875 -36.921875 15.9375 -36.921875 Z M 15.9375 -36.921875 "/></g></g></g><g fill="#8b0e64" fill-opacity="1"><g transform="translate(125.35736, 109.922588)"><g><path d="M 29.625 -26.421875 C 31.519531 -26.421875 33.039062 -25.894531 34.1875 -24.84375 C 35.34375 -23.800781 35.921875 -22.53125 35.921875 -21.03125 C 35.921875 -19.425781 35.4375 -18.175781 34.46875 -17.28125 C 33.5 -16.382812 32.234375 -15.9375 30.671875 -15.9375 C 29.273438 -15.9375 28.191406 -16.289062 27.421875 -17 C 26.660156 -17.71875 26.296875 -18.53125 26.328125 -19.4375 C 25.992188 -19.5 25.707031 -19.363281 25.46875 -19.03125 C 25.238281 -18.695312 24.992188 -18.046875 24.734375 -17.078125 C 24.566406 -16.453125 24.25 -15.867188 23.78125 -15.328125 C 26.039062 -15.160156 27.71875 -14.644531 28.8125 -13.78125 C 29.914062 -12.914062 30.46875 -11.800781 30.46875 -10.4375 C 30.46875 -9.769531 30.351562 -9.101562 30.125 -8.4375 L 29.71875 -6.890625 C 29.65625 -6.722656 29.625 -6.507812 29.625 -6.25 C 29.625 -5.78125 29.835938 -5.546875 30.265625 -5.546875 C 30.671875 -5.546875 31.015625 -5.71875 31.296875 -6.0625 C 31.578125 -6.414062 31.769531 -6.59375 31.875 -6.59375 C 32.039062 -6.59375 32.171875 -6.484375 32.265625 -6.265625 C 32.367188 -6.046875 32.421875 -5.789062 32.421875 -5.5 C 32.453125 -4.53125 32.160156 -3.585938 31.546875 -2.671875 C 30.929688 -1.753906 30 -1.003906 28.75 -0.421875 C 27.5 0.160156 25.992188 0.453125 24.234375 0.453125 C 22.097656 0.453125 20.320312 -0.078125 18.90625 -1.140625 C 17.488281 -2.210938 16.78125 -3.613281 16.78125 -5.34375 C 16.78125 -5.976562 16.914062 -6.695312 17.1875 -7.5 L 18.140625 -9.984375 C 18.296875 -10.585938 18.375 -11.023438 18.375 -11.296875 C 18.375 -11.722656 18.234375 -12.035156 17.953125 -12.234375 C 17.671875 -12.429688 17.234375 -12.53125 16.640625 -12.53125 L 15.640625 -12.53125 L 13.390625 -5.1875 C 13.285156 -4.789062 13.234375 -4.441406 13.234375 -4.140625 C 13.234375 -3.710938 13.316406 -3.375 13.484375 -3.125 C 13.648438 -2.875 13.882812 -2.628906 14.1875 -2.390625 C 14.414062 -2.160156 14.582031 -1.96875 14.6875 -1.8125 C 14.789062 -1.664062 14.804688 -1.476562 14.734375 -1.25 C 14.566406 -0.8125 14.234375 -0.492188 13.734375 -0.296875 C 13.234375 -0.0976562 12.46875 0 11.4375 0 L 0.046875 0 C -0.816406 0 -1.445312 -0.140625 -1.84375 -0.421875 C -2.25 -0.703125 -2.382812 -1.078125 -2.25 -1.546875 C -2.113281 -1.941406 -1.765625 -2.289062 -1.203125 -2.59375 C -0.703125 -2.863281 -0.285156 -3.179688 0.046875 -3.546875 C 0.378906 -3.910156 0.664062 -4.492188 0.90625 -5.296875 L 8.484375 -30.21875 C 8.585938 -30.519531 8.640625 -30.769531 8.640625 -30.96875 C 8.640625 -31.332031 8.546875 -31.628906 8.359375 -31.859375 C 8.179688 -32.097656 7.941406 -32.332031 7.640625 -32.5625 C 7.304688 -32.832031 7.0625 -33.066406 6.90625 -33.265625 C 6.757812 -33.460938 6.738281 -33.726562 6.84375 -34.0625 C 7.039062 -34.832031 8.085938 -35.5 9.984375 -36.0625 C 11.890625 -36.632812 13.875 -36.921875 15.9375 -36.921875 C 17.863281 -36.921875 19.273438 -36.5625 20.171875 -35.84375 C 21.078125 -35.125 21.53125 -34.132812 21.53125 -32.875 C 21.53125 -32.101562 21.414062 -31.367188 21.1875 -30.671875 L 16.828125 -16.484375 L 18.484375 -16.484375 C 19.148438 -16.484375 19.691406 -16.679688 20.109375 -17.078125 C 20.523438 -17.484375 20.847656 -18.066406 21.078125 -18.828125 C 21.910156 -21.296875 22.992188 -23.175781 24.328125 -24.46875 C 25.660156 -25.769531 27.425781 -26.421875 29.625 -26.421875 Z M 29.625 -26.421875 "/></g></g></g><g fill="#8b0e64" fill-opacity="1"><g transform="translate(160.269959, 109.922588)"><g><path d="M 16.9375 -26.671875 C 21.164062 -26.671875 24.226562 -25.992188 26.125 -24.640625 C 28.019531 -23.296875 28.96875 -21.578125 28.96875 -19.484375 C 28.96875 -18.847656 28.898438 -18.265625 28.765625 -17.734375 C 28.273438 -15.535156 26.890625 -13.960938 24.609375 -13.015625 C 22.328125 -12.066406 19.632812 -11.59375 16.53125 -11.59375 C 14.96875 -11.59375 13.503906 -11.691406 12.140625 -11.890625 C 12.109375 -10.160156 12.570312 -8.941406 13.53125 -8.234375 C 14.5 -7.535156 15.847656 -7.1875 17.578125 -7.1875 C 18.378906 -7.1875 19.144531 -7.28125 19.875 -7.46875 C 20.613281 -7.65625 21.546875 -7.929688 22.671875 -8.296875 C 23.609375 -8.628906 24.242188 -8.796875 24.578125 -8.796875 C 24.941406 -8.796875 25.125 -8.578125 25.125 -8.140625 C 25.15625 -6.972656 24.722656 -5.75 23.828125 -4.46875 C 22.929688 -3.1875 21.597656 -2.09375 19.828125 -1.1875 C 18.066406 -0.289062 15.9375 0.15625 13.4375 0.15625 C 9.738281 0.15625 6.707031 -0.773438 4.34375 -2.640625 C 1.976562 -4.503906 0.796875 -7.222656 0.796875 -10.796875 C 0.796875 -11.785156 0.929688 -12.945312 1.203125 -14.28125 C 2.035156 -18.382812 3.859375 -21.472656 6.671875 -23.546875 C 9.484375 -25.628906 12.90625 -26.671875 16.9375 -26.671875 Z M 12.484375 -14.890625 C 12.617188 -14.859375 12.800781 -14.84375 13.03125 -14.84375 C 14.4375 -14.84375 15.503906 -15.488281 16.234375 -16.78125 C 16.960938 -18.082031 17.3125 -19.53125 17.28125 -21.125 C 17.25 -22.0625 16.984375 -22.53125 16.484375 -22.53125 C 16.117188 -22.53125 15.6875 -22.238281 15.1875 -21.65625 C 14.6875 -21.070312 14.191406 -20.195312 13.703125 -19.03125 C 13.222656 -17.863281 12.816406 -16.484375 12.484375 -14.890625 Z M 12.484375 -14.890625 "/></g></g></g><g fill="#8b0e64" fill-opacity="1"><g transform="translate(188.239998, 109.922588)"><g><path d="M 24.53125 -26.421875 C 26.394531 -26.421875 27.882812 -25.851562 29 -24.71875 C 30.113281 -23.59375 30.671875 -22.195312 30.671875 -20.53125 C 30.671875 -19.894531 30.601562 -19.3125 30.46875 -18.78125 C 30.132812 -17.414062 29.5 -16.363281 28.5625 -15.625 C 27.632812 -14.894531 26.519531 -14.53125 25.21875 -14.53125 C 23.957031 -14.53125 23 -14.828125 22.34375 -15.421875 C 21.695312 -16.023438 21.125 -16.828125 20.625 -17.828125 C 20.363281 -18.398438 20.113281 -18.816406 19.875 -19.078125 C 19.644531 -19.347656 19.378906 -19.484375 19.078125 -19.484375 C 18.742188 -19.484375 18.453125 -19.347656 18.203125 -19.078125 C 17.953125 -18.816406 17.726562 -18.351562 17.53125 -17.6875 L 13.6875 -5.1875 C 13.625 -5.03125 13.59375 -4.785156 13.59375 -4.453125 C 13.59375 -4.015625 13.71875 -3.65625 13.96875 -3.375 C 14.21875 -3.09375 14.554688 -2.816406 14.984375 -2.546875 C 15.378906 -2.273438 15.644531 -2.054688 15.78125 -1.890625 C 15.914062 -1.734375 15.96875 -1.519531 15.9375 -1.25 C 15.863281 -0.8125 15.617188 -0.492188 15.203125 -0.296875 C 14.796875 -0.0976562 14.09375 0 13.09375 0 L 0.296875 0 C -0.566406 0 -1.1875 -0.140625 -1.5625 -0.421875 C -1.945312 -0.703125 -2.09375 -1.078125 -2 -1.546875 C -1.863281 -1.941406 -1.515625 -2.289062 -0.953125 -2.59375 C -0.453125 -2.863281 -0.0351562 -3.179688 0.296875 -3.546875 C 0.628906 -3.910156 0.914062 -4.492188 1.15625 -5.296875 L 5.59375 -19.734375 C 5.65625 -19.898438 5.6875 -20.132812 5.6875 -20.4375 C 5.6875 -20.800781 5.613281 -21.082031 5.46875 -21.28125 C 5.320312 -21.476562 5.082031 -21.726562 4.75 -22.03125 C 4.414062 -22.289062 4.179688 -22.519531 4.046875 -22.71875 C 3.910156 -22.925781 3.894531 -23.195312 4 -23.53125 C 4.195312 -24.289062 5.242188 -24.960938 7.140625 -25.546875 C 9.035156 -26.128906 11.019531 -26.421875 13.09375 -26.421875 C 14.457031 -26.421875 15.585938 -26.113281 16.484375 -25.5 C 17.378906 -24.882812 17.960938 -24.007812 18.234375 -22.875 C 19.828125 -25.238281 21.925781 -26.421875 24.53125 -26.421875 Z M 24.53125 -26.421875 "/></g></g></g><g fill="#8b0e64" fill-opacity="1"><g transform="translate(217.159027, 109.922588)"><g><path d="M 16.4375 -26.875 C 19.195312 -26.875 21.582031 -26.625 23.59375 -26.125 C 25.613281 -25.625 27.164062 -24.921875 28.25 -24.015625 C 29.332031 -23.117188 29.875 -22.109375 29.875 -20.984375 C 29.875 -19.816406 29.414062 -18.863281 28.5 -18.125 C 27.582031 -17.394531 26.304688 -17.03125 24.671875 -17.03125 C 23.003906 -17.03125 21.597656 -17.445312 20.453125 -18.28125 C 19.304688 -19.113281 18.734375 -20.164062 18.734375 -21.4375 C 18.734375 -21.863281 18.800781 -22.273438 18.9375 -22.671875 C 18.332031 -22.835938 17.796875 -22.921875 17.328125 -22.921875 C 16.492188 -22.921875 15.800781 -22.722656 15.25 -22.328125 C 14.707031 -21.929688 14.453125 -21.363281 14.484375 -20.625 C 14.484375 -19.757812 14.914062 -19.023438 15.78125 -18.421875 C 16.644531 -17.828125 18.046875 -17.082031 19.984375 -16.1875 C 21.648438 -15.445312 23.019531 -14.769531 24.09375 -14.15625 C 25.175781 -13.539062 26.09375 -12.765625 26.84375 -11.828125 C 27.59375 -10.898438 27.96875 -9.804688 27.96875 -8.546875 C 27.96875 -8.273438 27.90625 -7.773438 27.78125 -7.046875 C 27.238281 -4.816406 25.753906 -3.050781 23.328125 -1.75 C 20.898438 -0.445312 17.703125 0.203125 13.734375 0.203125 C 9.273438 0.203125 5.738281 -0.394531 3.125 -1.59375 C 0.507812 -2.789062 -0.796875 -4.441406 -0.796875 -6.546875 C -0.796875 -7.972656 -0.363281 -9.050781 0.5 -9.78125 C 1.363281 -10.519531 2.515625 -10.890625 3.953125 -10.890625 C 5.609375 -10.890625 7.023438 -10.375 8.203125 -9.34375 C 9.390625 -8.3125 9.984375 -6.992188 9.984375 -5.390625 C 9.984375 -4.960938 9.9375 -4.515625 9.84375 -4.046875 C 10.644531 -3.847656 11.410156 -3.75 12.140625 -3.75 C 13.003906 -3.75 13.71875 -3.976562 14.28125 -4.4375 C 14.851562 -4.90625 15.140625 -5.554688 15.140625 -6.390625 C 15.097656 -7.160156 14.710938 -7.816406 13.984375 -8.359375 C 13.253906 -8.910156 12.085938 -9.570312 10.484375 -10.34375 C 8.992188 -11.039062 7.765625 -11.695312 6.796875 -12.3125 C 5.828125 -12.925781 5 -13.695312 4.3125 -14.625 C 3.632812 -15.5625 3.296875 -16.664062 3.296875 -17.9375 C 3.296875 -20.664062 4.4375 -22.835938 6.71875 -24.453125 C 9 -26.066406 12.238281 -26.875 16.4375 -26.875 Z M 16.4375 -26.875 "/></g></g></g></svg>